<?xml version="1.0" encoding="UTF-8"?>
<svg xmlns="http://www.w3.org/2000/svg" viewBox="0 0 462.85 610.44">
  <defs>
    <style>
      .cls-1 {
        fill: none;
      }

      .cls-2 {
        fill: #070304;
      }

      .cls-3 {
        fill: #fff;
      }

      .cls-4 {
        fill: #341200;
      }
    </style>
  </defs>
  <g id="Lag_1" data-name="Lag 1">
    <g>
      <path class="cls-3" d="M314.18,491.27c-2.24.75-4.5,1.5-6.6,2.58-2.08,1.06,8.71-3.58,6.6-2.58-5.96,2.85-24.93,7.95-31.09,9.32-3.88.86-7.76,1.72-11.64,2.59l-17.69,2.11-23.76.53-25.35-1.32-18.22-3.96-14.78-2.64-4.22,34.06-2.38,41.98.53,9.24-3.43,9.24-1.85,13.73-6.34,2.79h-11.62l-10.03-2.27,2.38-9.24,4.22-8.18,3.43-6.6,1.58-5.81,2.38-4.49-.26-7.66,1.06-9.77-.26-8.98-3.17-12.14-1.06-8.71-.53-9.77-.79-8.18-2.11-5.81-1.32,22.18-2.38,12.14-1.58,16.1v12.94l-.53,10.56-3.43,5.54-3.43,15.58-16.9,2.9-9.77-2.64-2.51-5.02,7.13-7.66,1.85-7.13,6.07-7.92,1.32-9.77,2.11-17.42v-13.73l.26-12.67-.53-13.99-1.06-7.92-.79-9.5-6.86-7.92-5.54-17.16-.53-7.92-3.96-15.31-.53-9.5-1.58-19.83-4.49-12.38-4.49-16.63-10.3,3.7-4.75,7.13-5.02,3.96-7.13,4.22-8.45,1.06-13.2-.26-8.71-3.7-3.96-5.02-9.5-5.28-5.81-3.7-4.49-7.66-2.9-12.14v-10.56l4.22-11.88,8.45-7.13,12.14-5.54,9.77-12.94,6.07-17.16-8.45,1.58-8.18-.26-5.81-8.45-9.5-14.52,8.71-5.54,14.26,1.58,12.94,2.64,4.49.26-.22-3.7-8.86-15.06v-14.61l4.43-8.41,4.43-3.54,2.21,7.09v11.96l3.1,5.76,3.1,4.43,12.4-.89,9.3-1.33h10.63l4.43,1.33,7.09,3.99,4.87,2.21,5.76-1.77,3.99-4.87,4.87-7.09v-14.17l3.1-3.99,3.54,5.31,2.21,6.64v19.04l-1.77,9.74-9.3,8.41,17.27-5.76,13.73-.44,7.53,3.54,2.66,6.2v6.64l-5.76,5.31-8.86,4.43h-9.74l-10.19-3.54-4.43-1.33,12.84,17.27,5.31,7.09,16.39,11.07,11.07,3.54,12.84,2.66,17.27,2.21h73.07l45.61-3.54,24.36-3.1h9.3l11.51,2.66,21.26,7.97,14.61,10.19,15.06,23.03,3.99,15.94,3.99,18.6,2.66,17.71,2.66,17.71,3.99,13.24,3.99,12.45,9.3,3.1,10.19,5.76,3.99,8.41v7.97l3.99,7.97v5.76h-6.64l-4.43-7.09-3.54-4.87-3.1,4.43,4.87,4.43-3.99,3.1-6.2-3.54-7.09-8.41-1.33-8.41-.44-6.2-.89-7.53-6.64-6.2-3.54-7.09-3.1-9.74-3.1-7.97-1.77-9.3-.44-6.2-1.33-6.64-.89-7.53-.89-7.83-1.33-7.23-4.87-1.77.44,7.09v10.63l-.89,11.96-2.21,11.07-2.66,13.29-1.33,16.39-1.33,11.07v11.07l3.54,8.41,4.43,7.97-.44,10.19-2.21,9.74-2.21,10.63-2.21,17.27-.89,16.39v11.96l-3.54,8.41-2.66,15.06-11.07,3.1h-11.07l-6.2-4.87,2.66-12.4,3.54-10.63,3.99-9.86.87-9.1,6.07-10.83-.43-9.97-.43-10.83-1.3-14.73-8.23-5.63-5.63-11.7-6.93,8.23-5.63,6.07.87,7.37-2.17,12.56-2.17,9.97-5.2,10.83-3.03,18.2-3.47,11.26-4.33,13.43-14.73,4.33-9.53-1.3-5.63-3.9,3.47-12.13,9.1-9.97,1.3-9.53,5.2-9.1,1.73-9.53,3.47-7.37.43-12.56,5.43-10.99-10.82,2.9-1.32,7.39-1.63,3.4c-.82,1.72-2.24,3.09-3.99,3.86l-1.23.54c-.17.07-.37.05-.52-.06-2.02-1.56-3.26-3.93-3.38-6.48l-.08-1.79v-4.22l.26-4.49-6.86-2.11-5.81-5.54-3.96-8.18-.67.15"/>
      <path class="cls-2" d="M375.65,610.44h-11.8l-7.34-5.77,2.9-13.47,3.54-10.63,3.94-9.74.88-9.2,6.01-10.74-.85-20.38-1.23-13.95-7.98-5.46-4.8-9.97-5.44,6.46-5.21,5.61.81,6.89-2.2,12.78-2.29,10.36-5.11,10.64-3.04,18.18-3.47,11.27-4.58,14.2-15.8,4.65-10.21-1.39-6.81-4.72,3.86-13.5,9.02-9.88,1.28-9.36,5.22-9.13,1.81-9.65,3.33-7.09.43-12.58,4.1-8.3-6.7,1.8-1.19,6.65-1.71,3.58c-.98,2.05-2.66,3.67-4.74,4.58l-1.23.54c-.67.29-1.45.2-2.03-.25-2.38-1.83-3.82-4.6-3.96-7.6l-.08-1.79v-4.29s.2-3.4.2-3.4l-6.08-1.87-6.26-5.98-3.59-7.42c-1.57.39-2.88.71-3.81.92l-11.78,2.61-17.83,2.12-23.82.53-25.64-1.36-18.22-3.96-13.17-2.35-4.02,32.44-2.37,41.84.54,9.47-3.48,9.38-1.94,14.4-7.39,3.26-12.26-.04-11.54-2.61,2.88-11.05,7.58-14.65,1.66-5.96,2.19-4.13-.25-7.36,1.06-9.77-.26-8.7-3.16-12.18-1.06-8.71-.54-9.87-.46-4.74-.79,13.13-2.36,12.07-1.57,15.96v12.86l-.55,11.02-3.5,5.66-3.59,16.31-18.22,3.13-10.74-2.9-3.27-6.55,7.58-8.14,1.83-7.06,6.01-7.84,1.27-9.37,2.1-17.31v-13.64l.26-12.7-.52-13.83-1.05-7.85-.76-9.09-6.74-7.78-5.71-17.81-.52-7.78-3.97-15.47-.53-9.5-1.57-19.59-4.46-12.31-4.06-15.06-8.3,2.98-4.61,6.91-5.37,4.22-7.4,4.38-8.87,1.11-13.6-.27-9.33-3.96-4.01-5.08-9.24-5.13-6.19-3.94-4.78-8.16-3-12.71v-10.82l4.45-12.51,8.92-7.52,11.99-5.47,9.4-12.45,5.13-14.49-6.05,1.13-9.11-.29-6.24-9.07-10.35-15.82,10.44-6.64,14.92,1.66,12.83,2.62,2.7.16-.1-1.65-8.88-15.1v-15.39l4.75-9.02,6.39-5.11,2.94,9.4v11.81l2.88,5.35,2.56,3.66,11.5-.82,9.46-1.34h10.85l4.94,1.52,7.03,3.95,4.29,1.95,4.78-1.47,3.66-4.47,4.57-6.65v-14.22l4.69-6.03,4.81,7.21,2.35,7.06-.02,19.55-1.86,10.24-4.38,3.96,10.7-3.57,14.31-.46,8.37,3.94,3,7.01v7.61l-6.4,5.9-9.36,4.68h-10.35l-10.46-3.64,15.3,20.52,16,10.81,10.79,3.45,12.71,2.63,17.12,2.2h72.92l45.56-3.54,24.47-3.11,9.64.04,11.7,2.71,21.43,8.04,15.01,10.46,15.35,23.48,4.05,16.19,4,18.65,5.31,35.41,3.96,13.14,3.75,11.7,8.84,2.98,10.6,5.99,4.33,9.15v7.95l3.99,7.97v7.61h-8.97l-4.84-7.75-2.28-3.13-1.14,1.62,5.21,4.74-6.19,4.81-7.3-4.17-7.53-8.94-1.41-8.95-.44-6.2-.82-6.92-6.44-6.01-3.75-7.54-3.1-9.74-3.14-8.15-1.79-9.47-.44-6.11-1.33-6.67-1.77-15.31-1.17-6.33-1.91-.7.3,4.8v10.78s-.91,12.2-.91,12.2l-4.85,24.27-1.32,16.3-1.32,11.04v10.68l3.39,8.06,4.59,8.27-.5,10.88-2.21,9.74-2.2,10.55-2.2,17.16-.88,16.33v12.18s-3.59,8.54-3.59,8.54l-2.79,15.82-12.18,3.41ZM364.89,607.44h10.35l9.96-2.79,2.59-14.45,3.43-8.13v-11.65l.9-16.58,2.23-17.39,2.21-10.63,2.19-9.64.42-9.63-4.29-7.75-3.66-8.69v-11.55s1.34-11.07,1.34-11.07l1.35-16.5,4.85-24.27.88-11.81v-10.57l-.58-9.28,7.83,2.85,1.5,8.18,1.76,15.29,1.34,6.77.44,6.11,1.73,9.08,3.05,7.84,3.1,9.72,3.37,6.74,6.85,6.39.95,8.08.45,6.2,1.25,7.94,6.64,7.89,5.1,2.91,1.79-1.39-4.53-4.12,5.06-7.23,4.84,6.66,3.99,6.38h4.31v-3.9l-3.99-7.97v-7.99l-3.64-7.68-9.64-5.45-9.88-3.29-4.22-13.17-4.04-13.47-5.31-35.43-3.97-18.51-3.91-15.65-14.76-22.57-14.22-9.91-20.99-7.87-11.25-2.6h-9.03l-24.26,3.09-45.8,3.55h-73.26s-17.38-2.25-17.38-2.25l-13-2.7-11.28-3.61-16.77-11.33-5.47-7.29-15.55-20.91,8.76,2.63,10.01,3.48h9.14l8.35-4.17,5.12-4.72v-5.68l-2.31-5.39-6.69-3.15-13.15.42-23.84,7.95,14.22-12.87,1.66-9.11v-18.66l-2.07-6.22-2.28-3.42-1.51,1.94v14.12l-5.21,7.57-4.27,5.22-6.73,2.07-5.5-2.51-6.94-3.9-4.06-1.22h-10.3l-9.3,1.32-13.25.95-3.68-5.27-3.28-6.09v-12.11l-1.49-4.77-2.47,1.98-4.11,7.81v13.83l8.83,15.02.34,5.74-6.39-.39-12.87-2.63-13.66-1.52-6.98,4.45,8.67,13.25,5.36,7.8,7.26.23,10.85-2.03-7.02,19.83-10.14,13.42-12.3,5.62-7.98,6.73-4,11.25v10.12l2.81,11.76,4.19,7.15,5.5,3.5,9.69,5.38,3.91,4.95,8.09,3.43,12.8.26,8.03-1,6.77-4.01,4.75-3.75,4.9-7.34,12.29-4.41,4.9,18.14,4.54,12.51,1.6,20.03.52,9.39,3.97,15.44.52,7.74,5.39,16.69,6.98,8.06.83,9.99,1.06,7.99.53,13.99-.26,12.76v13.79s-2.12,17.51-2.12,17.51l-1.38,10.18-6.13,8-1.87,7.2-6.68,7.17,1.74,3.48,8.8,2.38,15.58-2.68,3.27-14.84,3.36-5.43.51-10.17v-12.93s1.61-16.32,1.61-16.32l2.36-12.05,1.74-29.31,4.67,12.99.79,8.18.53,9.83,1.03,8.51,3.19,12.38.27,9.08-1.06,9.76.27,7.95-2.49,4.69-1.66,5.95-7.58,14.63-1.95,7.58,8.36,1.89h11.13l5.28-2.33,1.82-13.22,3.32-8.95-.51-9.01,2.39-42.16,4.42-35.63,16.34,2.92,18.15,3.95,25.17,1.31,23.63-.53,17.54-2.09,11.56-2.57c4.85-1.08,16.79-4.26,24.75-6.92,1.79-.86,3.64-1.51,5.46-2.12h.03c.94-.39,2.22-.92,2.82.42.14.32.49,1.4-1,2.11-1.05.5-2.47,1.06-4.13,1.66-.51.21-1.01.42-1.43.59-.83.34-1.53.62-2.1.62-.01,0-.02,0-.03,0-5.32,1.73-11.86,3.55-16.95,4.89l3.09,6.39,5.36,5.11,7.65,2.35-.33,5.66v4.14s.08,1.72.08,1.72c.09,1.92.94,3.71,2.35,4.99l.67-.29c1.42-.62,2.57-1.73,3.24-3.13l1.54-3.22,1.45-8.13,14.95-4.01-6.75,13.67-.43,12.55-3.51,7.47-1.74,9.59-5.18,9.07-1.32,9.71-9.18,10.05-3.07,10.76,4.45,3.08,8.86,1.21,13.66-4.02,4.09-12.68,3.43-11.15,3.05-18.31,5.21-10.87,2.13-9.79,2.12-12.29-.92-7.84,6.1-6.57,8.38-9.95,6.46,13.43,8.49,5.81,1.36,15.44.89,21.29-6.12,10.93-.86,9-4.07,10.06-3.48,10.46-2.44,11.4,5.05,3.97Z"/>
    </g>
    <g>
      <path class="cls-3" d="M270.74,348.34l3.55-2.66c.08-.06.17-.11.26-.14l6.16-2.18s.08-.03.12-.05l6.05-3.08c.92-.47.59-1.85-.44-1.85h-16.45c-.4,0-.76-.24-.91-.62-1.62-4.07-1.86-4.05-1.86-4.05l-12.49,3.65c-.16.11-.35.17-.55.17h-19.37c-.17,0-.34.05-.49.13l-4.73,2.76c-.09.05-.16.11-.23.19l-3.99,4.39c-.1.11-.22.2-.36.25l-5.49,2.19c-.4.16-.85.04-1.12-.29l-2.74-3.33c-.24-.3-.29-.71-.12-1.05l3.79-7.79c.41-.84-.47-1.72-1.31-1.31l-8.1,3.92c-.83.4-1.71-.47-3.01-1.4l2.91-6.14c.73-.44,3.97-3.24,4.75-3.14l4.62-1.19c.07-.04.14-.07.22-.09l14.3-3.79,11.87-2.87c.27-.07.5-.25.64-.49l7-13.18,7.63-13.57,5.83-9.99c.07-.12.17-.23.29-.31l4.19-2.9c.56-.39.56-1.21.01-1.6l-9.26-6.67c-.14-.1-.26-.24-.33-.4l-4.1-9.43s-.04-.1-.05-.15l-2.5-9.98c-.02-.08-.03-.16-.03-.24v-11.23c0-.06,0-.13.02-.19l2.1-10.51,1.21-6.44c.04-.22,0-.45-.1-.65l-2.58-4.78c-.14-.27-.16-.59-.03-.87l3.54-7.88c.05-.11.12-.21.2-.29l6.1-6.1c.09-.09.2-.16.31-.21l7.7-3.24c.12-.05.25-.08.38-.08h19.42c.2,0,.4.06.56.18l12.05,8.44c.26.18.42.48.42.8v5.39c0,.29.13.56.35.75l9.9,8.32c.22.19.35.46.35.75v6.2c0,.08-.01.17-.03.25l-2.02,7.69c-.04.16-.04.33,0,.49l2.03,8.12c.02.08.03.16.03.24v5.18c0,.14-.03.27-.08.4l-3.17,7.12c-.09.21-.25.38-.46.48l-4.67,2.34c-.07.03-.14.06-.22.08l-4.73,1.09c-.4.09-.7.43-.75.83l-.7,5.63c-.04.3.07.6.28.81l3.34,3.34c.09.09.2.16.32.21l6.76,2.78c.17.07.32.19.43.35l3.6,5.2s.07.09.11.14l4.87,4.87c.1.1.18.23.23.36l3.73,10.36s.02.05.02.08l3.35,12.56c.02.08.03.17.03.25v11.24c0,.05,0,.11.01.16l2.08,12.47c.02.12.02.23,0,.35l-2.45,12.65c-.04.21-.15.4-.31.54l-7.91,7.12c-.21.19-.32.45-.32.73v9.98c0,.12-.02.24-.07.36l-3.67,9.39c-.05.13-.12.24-.22.34l-6.12,6.12c-.07.07-.14.12-.22.17l-10.02,5.46s-.04.02-.06.03l-10.11,4.6s-.05.02-.08.03l-11.78,4.21s-.07.02-.11.03l-4.7,1.08c-.44.1-.76.5-.76.95v21.2s0,.09,0,.14l-2.95,20.67s0,.06-.02.09l-1.66,7.06c-.02.07-.03.15-.03.22v13.78c0,.35-.18.67-.48.84l-10.78,6.36c-.12.07-.26.12-.4.13l-16.99,1.67s-.06,0-.1,0h-8.1c-.3,0-.58-.14-.77-.37l-4.35-5.43c-.27-.33-.29-.8-.05-1.16l2.95-4.43s.06-.09.1-.13l6.19-6.61c.08-.08.16-.15.26-.2l8.12-4.26c.38-.2.58-.62.51-1.04l-1.13-6.42c0-.06-.01-.11-.01-.17v-29.4s0-.04,0-.06l.84-12.79s0-.08.02-.12l2.93-15.09c.01-.08.04-.15.07-.22l4.11-9.05c.05-.12.13-.22.22-.31l7.37-6.97c.08-.07.17-.13.27-.18l3.86-1.76c.39-.18.62-.58.57-1.01l-.71-6.06c-.03-.28.06-.56.24-.77l3.46-3.84s.09-.09.14-.13c3.89-2.92,5.29-3.83,9.05-.14,3.41,3.34,7.05,7.23,7.04,12.01"/>
      <path class="cls-2" d="M238.88,471.33h-8.1c-.76,0-1.46-.34-1.94-.93l-4.35-5.43c-.68-.85-.73-2.02-.13-2.93l2.95-4.42c.08-.11.16-.21.24-.31l6.21-6.62c.19-.2.41-.37.66-.5l7.79-4.08-1.07-6.04c-.03-.15-.04-.29-.04-.43v-29.57s.85-12.79.85-12.79c0-.11.02-.21.04-.31l2.93-15.09c.04-.19.1-.37.18-.55l4.11-9.05c.14-.3.32-.56.56-.78l7.37-6.96c.2-.19.42-.34.67-.45l3.52-1.6-.67-5.68c-.08-.71.14-1.42.62-1.95l3.45-3.84c.11-.12.23-.23.35-.33,2.03-1.52,3.62-2.63,5.27-2.83l-.54-.72,3.55-2.67c.2-.15.42-.27.66-.35l6.16-2.18,4.06-2.07h-14.28c-1.02,0-1.92-.61-2.3-1.56-.56-1.41-.94-2.29-1.19-2.83l-11.17,3.27c-.35.18-.74.28-1.14.28h-19.23l-4.54,2.65-3.93,4.33c-.25.28-.56.49-.91.63l-5.49,2.2c-1.01.4-2.15.11-2.83-.73l-2.75-3.33c-.61-.75-.74-1.79-.32-2.66l3.13-6.44-6.75,3.27c-1.51.73-2.8-.23-3.94-1.09-.19-.14-.39-.29-.6-.45l-1.02-.73,3.64-7.68.38-.23c.14-.09.63-.46,1.03-.77,2.35-1.81,3.41-2.52,4.31-2.58l4.3-1.11c.11-.05.23-.09.35-.12l14.3-3.79,11.67-2.82,6.89-12.97,7.65-13.6,5.84-10.01c.18-.31.43-.58.73-.79l3.59-2.49-8.66-6.23c-.36-.26-.65-.62-.82-1.02l-4.1-9.43c-.06-.13-.1-.26-.13-.4l-2.49-9.97c-.05-.2-.07-.4-.07-.6v-11.23c0-.16.02-.33.05-.49l2.1-10.51,1.17-6.25-2.49-4.62c-.36-.68-.39-1.5-.08-2.19l3.54-7.88c.12-.28.3-.52.51-.74l6.1-6.1c.23-.23.49-.41.79-.53l7.7-3.24c.3-.13.63-.19.96-.19h19.42c.51,0,1,.16,1.42.45l12.05,8.43c.66.46,1.06,1.22,1.06,2.03v5.15l9.72,8.16c.56.47.88,1.17.88,1.9v6.2c0,.21-.03.43-.08.63l-1.99,7.56,2,7.99c.05.2.07.4.07.6v5.18c0,.35-.07.69-.21,1.01l-3.17,7.12c-.23.52-.64.95-1.16,1.21l-4.67,2.33c-.18.09-.36.15-.55.2l-4.38,1.01-.63,5.02,3.09,3.08,6.66,2.75c.44.18.82.49,1.09.88l3.6,5.2,4.81,4.8c.26.26.46.57.58.91l3.79,10.57,3.35,12.55c.06.2.08.42.08.64v11.24l2.07,12.38c.05.3.04.59-.01.88l-2.45,12.65c-.1.53-.38,1.01-.78,1.37l-7.74,6.97v9.75c0,.31-.06.62-.17.91l-3.67,9.39c-.12.32-.31.6-.56.85l-6.12,6.12c-.16.16-.35.31-.56.42l-10.16,5.53-10.3,4.68-11.82,4.22c-.09.03-.18.06-.27.08l-4.3.99v20.79c0,.11,0,.23-.02.34l-3,20.9-1.64,6.99v13.72c0,.88-.47,1.69-1.22,2.14l-10.78,6.36c-.31.18-.66.3-1.02.33l-17.23,1.68ZM231.03,468.33h7.85l16.82-1.66,10.43-6.15v-13.48c0-.19.02-.39.07-.57l1.66-7.05,2.94-20.62v-21.13c0-1.16.79-2.16,1.92-2.42l4.7-1.08,11.72-4.19,10.07-4.58,9.92-5.41,5.99-5.99,3.6-9.2v-9.88c0-.7.3-1.37.82-1.84l7.79-7.01,2.4-12.39-2.06-12.37c-.02-.14-.03-.27-.03-.41v-11.17l-3.33-12.49-3.68-10.21-4.79-4.79c-.11-.11-.2-.22-.28-.34l-3.52-5.08-6.62-2.73c-.31-.12-.58-.31-.81-.54l-3.33-3.33c-.54-.55-.8-1.3-.71-2.06l.7-5.63c.13-1.03.89-1.87,1.9-2.11l4.67-1.08,4.45-2.22,3.04-6.85v-5.01l-2.01-8.06c-.1-.4-.1-.83,0-1.23l2.01-7.63v-5.89l-9.72-8.16c-.56-.47-.88-1.16-.88-1.9v-5.12l-11.69-8.19h-19.16l-7.51,3.16-5.96,5.96-3.4,7.56,2.45,4.56c.27.5.36,1.08.25,1.63l-1.21,6.44-2.09,10.47v11.12l2.48,9.92,4.02,9.22,9.14,6.58c.65.47,1.04,1.23,1.03,2.04,0,.8-.41,1.56-1.07,2.02l-4.1,2.84-5.77,9.89-7.62,13.55-6.98,13.15c-.33.62-.92,1.08-1.6,1.25l-11.87,2.87-19.4,5.14h-.03c-.61.29-2.08,1.43-2.73,1.93-.38.29-.67.52-.9.68l-2.21,4.67c.25.18.49.35.66.44l7.92-3.83c.97-.47,2.08-.28,2.83.48s.94,1.87.48,2.83l-3.64,7.49,2.29,2.78,5.02-2.01,3.91-4.3c.17-.19.37-.35.58-.47l4.73-2.76c.38-.22.81-.34,1.25-.34l19.27-.04,13.01-3.77c1.16-.08,1.55.44,3.24,4.66h16.1c1.17,0,2.14.76,2.41,1.9s-.25,2.26-1.29,2.79l-6.05,3.08c-.11.05-.21.1-.31.13l-6.07,2.15-1.99,1.49c.9.45,1.87,1.19,2.96,2.27,3.8,3.73,7.5,7.81,7.48,13.08h-3c.01-4.12-3.25-7.66-6.59-10.94-2.91-2.85-3.39-2.51-7.05.24l-3.27,3.63.69,5.82c.13,1.08-.45,2.1-1.44,2.55l-3.78,1.72-7.24,6.84-4.05,8.9-2.92,15.03-.83,12.73v29.37s1.13,6.33,1.13,6.33c.19,1.07-.33,2.12-1.29,2.63l-8.05,4.21-6.13,6.54-2.69,4.04,3.95,4.94ZM269.11,447.16h0s0,0,0,0ZM309.07,380.05h0s0,0,0,0ZM315.07,374.11s0,0,0,0h0ZM327.63,309.8s0,0,0,0h0ZM306.71,271.44h0s0,0,0,0ZM312.2,257.3s0,0,0,0h0Z"/>
    </g>
    <g>
      <path class="cls-2" d="M146.13,355.5c6.52,7.78,19.2,10.57,21.97,20.3.9,3.18.51,6.62,1.47,9.79,2.52,8.33,14.27,11.26,21.75,6.74s10.66-14.05,9.93-22.71c-.31-3.64-1.17-7.41,0-10.87,1.49-4.41,6.13-7.89,5.61-12.51-.58-5.15-4.63-12.53-12.04-8.11s-15.58-1.67-20.05-3.51c-8.05-3.31-26.38-10.82-31.34-7.31-6.95,4.92-1.56,23.1,2.71,28.19Z"/>
      <path class="cls-2" d="M183.33,394.95c-2.11,0-4.25-.38-6.25-1.15-4.05-1.56-6.89-4.42-7.99-8.06-.51-1.67-.65-3.41-.78-5.1-.13-1.57-.26-3.19-.69-4.7-1.6-5.64-6.63-8.87-11.95-12.28-3.56-2.29-7.25-4.65-9.92-7.83h0c-3.06-3.66-7.02-14.41-6.01-22.28.4-3.09,1.54-5.33,3.39-6.64,4.58-3.25,18.66,1.84,31.82,7.25.83.34,1.8.83,2.83,1.34,4.71,2.34,11.16,5.55,16.77,2.21,2.69-1.6,5.16-1.86,7.36-.77,3.21,1.59,5.05,5.8,5.44,9.25.34,3-1.36,5.55-3.01,8-1.01,1.51-2.06,3.08-2.62,4.73-.88,2.61-.55,5.5-.22,8.29.09.79.18,1.59.25,2.37.83,9.85-3.17,18.95-10.17,23.18-2.41,1.45-5.3,2.19-8.24,2.19ZM147.29,326.89c-1.53,0-2.76.25-3.58.83-1.61,1.14-2.62,3.15-2.98,5.95-.95,7.34,2.79,17.95,5.78,21.51h0c2.57,3.07,6.19,5.39,9.69,7.63,5.25,3.37,10.67,6.85,12.37,12.85.46,1.6.59,3.28.72,4.89.13,1.63.27,3.33.74,4.89,1.01,3.34,3.64,5.98,7.39,7.42,4.53,1.74,9.75,1.37,13.62-.97,6.68-4.03,10.49-12.76,9.69-22.24-.07-.78-.16-1.56-.25-2.34-.34-2.9-.69-5.9.27-8.73.6-1.78,1.69-3.4,2.74-4.96,1.62-2.41,3.15-4.69,2.85-7.33-.35-3.09-2.03-7.05-4.89-8.47-1.87-.93-4.03-.68-6.4.73-6.08,3.62-13.09.14-17.73-2.17-1.01-.5-1.97-.98-2.77-1.31-5.91-2.43-19.94-8.19-27.28-8.19Z"/>
    </g>
    <path class="cls-2" d="M366.19,372.57c8.48-.27,17.96,1.76,22.73,8.76,3.08,4.53,3.61,10.27,3.95,15.73.21,3.31.36,6.72-.79,9.83-2.35,6.37-9.68,10.18-11.13,16.81-1.44,6.58,3.56,13.36,1.94,19.91-1.83,7.41-10.93,10.32-18.55,10.12-5.32-.13-11.23-1.55-14.03-6.07-2.19-3.55-1.92-8.19-4.06-11.77-3.34-5.61-10.88-6.48-17.11-8.42-7.94-2.47-15.16-7.83-18.88-15.27s-3.54-16.95,1.32-23.7c6.23-8.64,17.3-10.25,27.21-9.68,10.2.59,17.14-5.93,27.4-6.25Z"/>
    <g>
      <path class="cls-2" d="M427.58,474.5c1.35-2.32,3.55-4.13,6.09-5.01"/>
      <path class="cls-2" d="M428.88,475.25l-2.59-1.51c1.52-2.62,4.03-4.69,6.89-5.67l.98,2.84c-2.19.76-4.12,2.34-5.28,4.34Z"/>
    </g>
    <path class="cls-2" d="M74.38,381.65l-.32-2.98c1.71-.18,2.46-3.38,2.59-6.06.69-14.61.64-31.03-8.63-40.93-4.66-4.98-11.73-8.07-19.91-8.71-7.51-.59-15.13.77-22.5,2.09l-.53-2.95c7.56-1.35,15.37-2.74,23.27-2.13,8.92.7,16.69,4.12,21.86,9.65,10.07,10.75,10.15,27.89,9.44,43.12-.25,5.33-2.17,8.57-5.27,8.9Z"/>
    <ellipse class="cls-2" cx="50.67" cy="347.86" rx="8.01" ry="4.97" transform="translate(-298.16 304.37) rotate(-74.61)"/>
    <ellipse class="cls-2" cx="22.15" cy="347.86" rx="8.01" ry="4.97" transform="translate(-319.11 276.87) rotate(-74.61)"/>
    <rect class="cls-2" x="22.69" y="384.98" width="31.95" height="2" transform="translate(-24.05 3.17) rotate(-3.58)"/>
    <g>
      <ellipse class="cls-2" cx="50.33" cy="295.11" rx="6.22" ry="3.33" transform="translate(-247.55 265.29) rotate(-74.61)"/>
      <path class="cls-4" d="M49.17,301.67c-.21,0-.42-.03-.63-.08-2.07-.57-2.91-3.86-1.91-7.49.46-1.68,1.25-3.17,2.23-4.19,1.05-1.11,2.21-1.56,3.25-1.27,2.07.57,2.91,3.86,1.91,7.49-.46,1.68-1.25,3.17-2.23,4.19-.84.89-1.75,1.35-2.62,1.35ZM51.49,289.55c-.59,0-1.27.36-1.91,1.04-.86.91-1.57,2.25-1.99,3.77-.82,2.99-.27,5.86,1.21,6.26.66.18,1.48-.18,2.26-.99.86-.91,1.57-2.25,1.99-3.77.82-2.99.27-5.86-1.21-6.26-.11-.03-.23-.05-.35-.05Z"/>
    </g>
    <g>
      <ellipse class="cls-2" cx="82.03" cy="301.17" rx="6.22" ry="3.33" transform="translate(-230.11 300.3) rotate(-74.61)"/>
      <path class="cls-4" d="M80.87,307.73c-.21,0-.42-.03-.63-.08-2.07-.57-2.91-3.86-1.91-7.49h0c.46-1.68,1.25-3.17,2.23-4.19,1.05-1.11,2.21-1.56,3.25-1.27,1.04.29,1.8,1.26,2.14,2.75.31,1.38.23,3.06-.23,4.74s-1.25,3.17-2.23,4.19c-.84.89-1.75,1.35-2.62,1.35ZM83.2,295.61c-.59,0-1.27.36-1.91,1.04-.86.91-1.57,2.25-1.99,3.77h0c-.82,2.99-.27,5.86,1.21,6.26.66.19,1.48-.18,2.26-.99.86-.91,1.57-2.25,1.99-3.77s.5-3.03.22-4.25c-.25-1.09-.77-1.83-1.43-2.01-.11-.03-.23-.05-.35-.05Z"/>
    </g>
    <g>
      <path class="cls-2" d="M148.95,412.14c2.27.04,4.63.33,6.52,1.56,3.89,2.54,4.45,8.01,3.86,12.62s-1.88,9.42-.27,13.77c2.05,5.54,8.06,8.43,11.81,13,5.8,7.06,5.24,18.37-.89,25.15-6.12,6.78-16.91,8.6-25.15,4.63-2.12-1.02-4.13-2.43-5.42-4.4-2.97-4.54-1.44-10.66-3.15-15.81-3.6-10.87-19.24-12.9-24.68-22.97-1.98-3.66-2.34-8.05-1.62-12.15,1.56-8.84,7.55-13.32,16.19-12.85,7.89.43,14.8-2.71,22.78-2.56Z"/>
      <path class="cls-2" d="M154.12,485.43c-3.26,0-6.53-.68-9.49-2.11-2.54-1.22-4.44-2.76-5.62-4.57-1.8-2.75-2.02-6.07-2.22-9.28-.14-2.24-.29-4.56-.98-6.65-1.86-5.6-6.97-8.76-12.39-12.1-4.74-2.92-9.64-5.95-12.25-10.79-1.88-3.48-2.47-7.91-1.67-12.48,1.57-8.92,7.66-13.76,16.71-13.26,4.02.22,7.73-.49,11.64-1.24,3.55-.68,7.23-1.37,11.12-1.32,2.04.04,4.66.26,6.79,1.65,4.62,3.01,4.54,9.5,4.09,13.1-.11.9-.25,1.8-.4,2.71-.57,3.66-1.16,7.44.1,10.83,1.24,3.35,3.96,5.68,6.84,8.14,1.7,1.46,3.46,2.97,4.9,4.71,5.88,7.16,5.48,18.74-.9,25.8-4.01,4.44-10.12,6.86-16.25,6.86ZM124.97,415.16c-7.83,0-13.09,4.49-14.49,12.47-.77,4.34-.21,8.54,1.56,11.83,2.48,4.6,7.27,7.55,11.9,10.41,5.33,3.29,10.85,6.69,12.82,12.64.73,2.21.88,4.59,1.03,6.9.21,3.22.4,6.27,2.06,8.8,1.08,1.65,2.84,3.07,5.22,4.22,8.14,3.92,18.7,1.97,24.56-4.52,6.06-6.71,6.45-17.7.87-24.5-1.38-1.68-3.1-3.16-4.77-4.59-2.85-2.44-5.79-4.97-7.12-8.56-1.35-3.63-.74-7.54-.15-11.33.14-.9.28-1.79.39-2.68.34-2.71.68-9.32-3.64-12.14-1.91-1.25-4.35-1.45-6.26-1.48h0c-3.8-.08-7.41.62-10.91,1.3-3.8.73-7.74,1.49-11.89,1.26-.4-.02-.79-.03-1.17-.03Z"/>
    </g>
    <path class="cls-2" d="M356.58,499.3c-4.89-5.49-8.72-11.75-11.38-18.6l2.8-1.09c2.53,6.52,6.18,12.47,10.83,17.69l-2.24,2Z"/>
    <path class="cls-2" d="M329.05,534.52c-.05,0-.1,0-.14,0-1.33-.12-3.7-1.88-4.3-2.99-1.43-2.63-1.28-5.42-1.12-8.11.06-1.1.13-2.24.07-3.33l3-.15c.06,1.25,0,2.47-.07,3.65-.14,2.48-.26,4.62.76,6.5.24.35,1.42,1.21,1.93,1.42.65-.08,3.49-.65,3.73-4.01.07-.92.12-1.62.18-2.27.17-2.09.28-3.47.47-9.13l.04-1.17,1.15-.25c4.07-.87,8.07-2.18,11.88-3.87l1.22,2.74c-3.64,1.62-7.44,2.9-11.32,3.81-.17,4.79-.28,6.21-.44,8.12-.05.64-.11,1.34-.17,2.24-.15,2.07-.99,3.81-2.43,5.04-1.65,1.4-3.66,1.77-4.41,1.77Z"/>
    <path class="cls-2" d="M257.19,448.87c-4.79,0-9.69-.65-14.24-3.08l.47-.88c7.01,3.75,15.03,3.09,22.1,2.51.38-.03.93-.5,1.04-.87.04-.13,0-.16-.04-.19l.61-.79c.39.3.53.76.38,1.27-.23.78-1.13,1.52-1.92,1.58-2.7.22-5.54.46-8.41.46Z"/>
    <path class="cls-2" d="M314.99,492.79l-1.02-2.82c10.68-3.85,21.62-7.45,32.51-10.7l.86,2.88c-10.84,3.24-21.73,6.82-32.35,10.65Z"/>
    <g>
      <path class="cls-2" d="M332.87,482.24c1.76-4.64,3.51-9.89,1.44-14.4-1.81-3.94-6.31-6.21-10.65-6.21-2.42,0-4.95.67-6.68,2.37-2.86,2.83-3.22,8.07-6.95,9.57-2.92,1.18-6.06-.72-9.03-1.79-2.83-1.01-6.02-1.25-8.84-.22s-5.21,3.46-5.77,6.42c-2.55-.9-5.17-1.81-7.88-1.83s-5.58,1.03-7.06,3.29c-1.24,1.9-1.33,4.3-1.38,6.56-.04,2.06,1.43,3.55,3.13,4.71s3.67,1.86,5.65,2.41c2.8.76,5.68,1.22,8.56,1.6,4.04.53,8.13.89,12.19.55,10.7-.91,20.31-6.63,30.49-10.06.85-.29,1.73-.57,2.44-1.12s0-1.03.31-1.87Z"/>
      <path class="cls-2" d="M296.33,495.92c-3.16,0-6.24-.33-8.96-.69-2.58-.34-5.62-.79-8.63-1.61-2.5-.68-4.29-1.45-5.8-2.47-2.29-1.56-3.39-3.24-3.35-5.13.05-2.12.1-4.75,1.46-6.82,1.42-2.17,4.26-3.52,7.41-3.52h.07c2.62.02,5.2.86,7.51,1.67.74-2.75,3.02-5.16,5.96-6.23,2.74-1,6-.92,9.18.22.61.22,1.23.47,1.86.73,2.3.94,4.68,1.92,6.81,1.06,2-.81,2.97-2.84,4-5,.76-1.59,1.54-3.23,2.79-4.47,1.64-1.62,4.14-2.52,7.02-2.52h.01c4.86,0,9.32,2.62,11.1,6.5,2.11,4.6.46,9.83-1.43,14.79h0c-.09.23-.05.42,0,.65.07.37.18.93-.47,1.43-.75.57-1.63.87-2.48,1.16l-.11.04c-3.29,1.11-6.57,2.48-9.75,3.81-6.66,2.78-13.55,5.66-20.86,6.28-1.11.09-2.23.14-3.33.14ZM278.46,476.67c-2.22,0-5.1.8-6.58,3.07-1.2,1.84-1.25,4.31-1.29,6.3-.03,1.55.89,2.91,2.91,4.28,1.42.96,3.11,1.68,5.5,2.34,2.95.81,5.95,1.25,8.5,1.58,3.61.47,7.87.9,12.08.55,7.15-.61,13.97-3.45,20.55-6.2,3.2-1.33,6.5-2.71,9.82-3.83l.11-.04c.81-.27,1.58-.53,2.2-1,.16-.12.16-.13.1-.45-.06-.29-.13-.7.05-1.2,1.81-4.76,3.41-9.76,1.45-14.01-1.63-3.54-5.72-5.92-10.2-5.92h-.01c-2.62,0-4.86.79-6.31,2.23-1.12,1.11-1.87,2.67-2.59,4.18-1.06,2.23-2.16,4.54-4.53,5.5-2.51,1.01-5.08-.04-7.57-1.06-.61-.25-1.22-.5-1.82-.71-2.97-1.06-5.99-1.14-8.5-.22-2.81,1.03-4.95,3.4-5.45,6.04l-.11.57-.55-.19c-2.49-.88-5.06-1.78-7.71-1.8h-.06Z"/>
    </g>
    <path class="cls-2" d="M284.57,341.89l-.95-2.84,23.93-8.03c1.02-.34,1.96-.7,2.35-1.3.31-.49.33-1.25.31-2-.11-4.04-1.24-8.14-2.33-12.11-1.39-5.03-2.82-10.24-2.33-15.62l2.99.28c-.45,4.84.85,9.55,2.23,14.55,1.14,4.14,2.32,8.42,2.44,12.83.03,1.17-.04,2.52-.78,3.69-.99,1.56-2.75,2.15-3.92,2.54l-23.93,8.03Z"/>
    <path class="cls-2" d="M265.19,334.34c-.13-2.16-.36-4.36-.58-6.49-.36-3.48-.74-7.09-.69-10.69.09-7.02,1.97-12.89,5.42-16.96l2.29,1.94c-3.79,4.46-4.65,10.65-4.71,15.05-.05,3.43.32,6.94.68,10.34.23,2.17.46,4.4.59,6.63l-3,.18Z"/>
    <path class="cls-2" d="M286.24,288.68c-6.56,0-13.11-3.27-16.7-8.88l2.53-1.62c4.1,6.4,13.14,9.24,20.16,6.34,5.35-2.21,9.2-7.02,12.69-11.76l2.42,1.78c-3.57,4.86-7.9,10.25-13.96,12.75-2.28.94-4.7,1.39-7.13,1.39Z"/>
    <path class="cls-2" d="M277.22,279.8c-4.11,0-8.15-1.61-11.14-4.45l2.07-2.17c2.49,2.37,6.03,3.72,9.47,3.62,2.43-.08,4.89-.84,7.01-1.55,3.35-1.13,7.22-2.59,10.51-4.88,3.34-2.33,5.73-5.36,6.74-8.54l2.86.91c-1.55,4.88-5.14,8.18-7.88,10.09-3.6,2.51-7.72,4.07-11.27,5.27-2.32.78-5.04,1.62-7.87,1.71-.16,0-.33,0-.49,0Z"/>
    <path class="cls-2" d="M313.59,237.69c-6.75-1.81-12.62-6.62-15.71-12.89-.34-.68-.66-1.4-.99-2.13-1.49-3.31-2.9-6.43-5.71-7.04-1.46-.32-3.07.16-4.76.67-.78.23-1.59.48-2.42.65-2.14.45-4.28.4-6.35.36-.72-.02-1.44-.03-2.15-.02-5.64.05-11.25,1.48-16.22,4.13l-1.41-2.65c5.4-2.88,11.49-4.43,17.6-4.48.75,0,1.49,0,2.24.02,1.99.04,3.87.08,5.68-.3.71-.15,1.42-.36,2.18-.59,1.99-.59,4.04-1.21,6.26-.72,4.29.93,6.16,5.08,7.81,8.74.31.7.62,1.39.95,2.04,2.71,5.5,7.87,9.73,13.79,11.32l-.78,2.9Z"/>
    <g>
      <path class="cls-2" d="M266.96,236.87c-1.28,1.48-2.17,3.29-2.57,5.2-.12.58-.19,1.22.1,1.74.66,1.18,2.66.68,3.25-.54s.21-2.66-.16-3.96c-.12-.43-.27-.89-.63-1.16-.51-.38-1.28-.19-1.72.27s-.61,1.11-.68,1.74c-.16,1.39.45,3.18,1.84,3.22"/>
      <path class="cls-2" d="M265.75,245.97c-1.1,0-2.04-.53-2.55-1.43-.55-.98-.42-2.05-.27-2.77.04-.19.08-.38.13-.57-.04-.43-.04-.85,0-1.21.13-1.12.49-1.98,1.09-2.6.3-.32.67-.56,1.05-.71.2-.27.41-.53.62-.78l.66.57c.49.03.96.19,1.36.48.78.58,1.03,1.43,1.18,1.94.37,1.28.94,3.22.08,5.02-.57,1.19-1.87,2.02-3.24,2.06-.04,0-.08,0-.12,0ZM266.14,241.35c.09.29.22.49.3.53l-.02.69c.22-.51.15-1.18-.02-1.92-.09.23-.18.46-.25.7Z"/>
    </g>
    <g>
      <path class="cls-2" d="M284.89,236.87c-1.28,1.48-2.17,3.29-2.57,5.2-.12.58-.19,1.22.1,1.74.66,1.18,2.66.68,3.25-.54s.21-2.66-.16-3.96c-.12-.43-.27-.89-.63-1.16-.51-.38-1.28-.19-1.72.27s-.61,1.11-.68,1.74c-.16,1.39.45,3.18,1.84,3.22"/>
      <path class="cls-2" d="M283.67,245.97c-1.1,0-2.04-.53-2.55-1.43-.55-.98-.42-2.05-.27-2.77.04-.19.08-.38.13-.57-.05-.43-.04-.85,0-1.22.13-1.12.49-1.97,1.09-2.6.3-.32.67-.56,1.05-.71.2-.27.41-.53.62-.78l.66.57c.49.03.96.19,1.36.48.78.58,1.03,1.43,1.18,1.94.37,1.28.94,3.22.08,5.02-.57,1.19-1.87,2.02-3.24,2.06-.04,0-.08,0-.12,0ZM284.06,241.35c.09.29.22.49.3.53l-.02.69c.22-.51.15-1.18-.02-1.92-.09.23-.18.46-.25.7Z"/>
    </g>
    <path class="cls-2" d="M266.52,265.41l-2.98-.28c.07-1.14,1.75-4.36,2.3-5.22,1.44-2.26,3.63-2.96,4.45-3.22,2.22-.71,4.1-.33,5.23-.11,1.37.27,2.78.55,4.08,1.71.37.32,1.17,1.4,2.26,3.04l.06.1,1,1.77-2.61,1.47-.97-1.72c-1.33-1.99-1.76-2.45-1.78-2.46-.64-.56-1.47-.73-2.62-.96-1.01-.2-2.25-.45-3.73.03-.59.19-1.98.63-2.83,1.97-.65,1.02-1.74,3.35-1.85,3.88Z"/>
    <path class="cls-2" d="M268.93,371.4c-1.87,0-3.96-1.05-4.44-3.15-.11-.48-.16-1.13.04-1.85-.64-.06-1.31-.29-1.86-.85-.46-.46-.76-1.08-.9-1.84-.27-1.5.16-3.09,1.18-4.37,1.02-1.28,2.48-2.06,4-2.13l.14,3c-.65.03-1.31.4-1.79,1-.48.6-.69,1.33-.57,1.97.04.21.08.28.08.28-.02-.04.23.03,1.09-.22l3.14-.92,1.03,2.81c-1.34.6-2.84,1.61-2.65,2.46.11.49.9.88,1.66.81.97-.08,1.96-.64,3-1.23l.19-.11c3.68-2.08,7.56-3.8,11.31-5.46,5.31-2.36,10.81-4.8,16.54-6.46,5.01-1.46,10.19-2.32,15.4-2.57l.48-.02c2.06-.09,4.01-.18,5.49-1.12l1.61,2.53c-2.15,1.37-4.71,1.49-6.97,1.59l-.47.02c-4.98.24-9.92,1.07-14.71,2.46-5.54,1.61-10.94,4.01-16.16,6.32-3.69,1.64-7.5,3.33-11.05,5.33l-.19.11c-1.22.69-2.61,1.48-4.24,1.61-.13.01-.26.02-.39.02Z"/>
    <path class="cls-2" d="M139.47,498.49l-1.33-.82c-2.93-1.81-6.26-3.08-9.47-4.31-3.34-1.28-6.8-2.6-9.92-4.54-2.38-1.48-4.6-3.36-6.38-4.87l1.29-1.53c2.21,1.87,4.06,3.4,6.15,4.7,2.96,1.84,6.32,3.13,9.58,4.38,2.77,1.06,5.63,2.16,8.3,3.61-.23-2.25-1.42-4.33-2.49-5.8-.84-1.15-1.82-2.25-2.77-3.32-.96-1.08-1.95-2.19-2.83-3.38-2.47-3.35-4.23-7.57-5.08-12.22l1.97-.36c.8,4.35,2.43,8.29,4.73,11.39.83,1.12,1.79,2.2,2.72,3.24.98,1.1,2,2.24,2.9,3.47,2.21,3.01,3.19,6.06,2.85,8.82l-.19,1.55Z"/>
  </g>
  <g id="Hotspots">
    <circle id="Hotspot_3" class="cls-1" cx="289.06" cy="245.55" r="54.42"/>
    <ellipse id="Hotspot_2" class="cls-1" cx="78.91" cy="333.8" rx="75.91" ry="84.34"/>
    <ellipse id="Hotspot_1" class="cls-1" cx="320.6" cy="517.91" rx="70.61" ry="64.16"/>
  </g>
</svg>