<?xml version="1.0" encoding="UTF-8"?>
<svg id="Lag_1" data-name="Lag 1" xmlns="http://www.w3.org/2000/svg" viewBox="0 0 98.58 13.85">
  <defs>
    <style>
      .cls-1 {
        fill: #fff;
        stroke: #000;
        stroke-miterlimit: 10;
      }
    </style>
  </defs>
  <path class="cls-1" d="M12.88,10.37v-.02c-.03-.11-.12-.09-.28-.09-2.35,0-2.47-.1-3-1.5-.04-.12-.09-.23-.14-.33-.46-.98-1.17-1.43-2.61-1.43-.09,0-.23.11-.23.02,0-.04.72-.47,1.91-1.37.64-.49,1.41-1.07,1.98-1.5.5-.37.85-.63.85-.63.16,0,.39.03.48.03.58,0,.62.02.64-.21.14-1.28.36-2.16.36-2.59,0-.21,0-.18-.22-.18-.36,0-2.02.16-4.96.29-.19,0-.21.04-.23.23-.09,1.07-.13,1.85-.13,2.12v.02c0,.16.02.2.2.2.31.01.49,0,.8.01.05,0,.12-.01.12.04s-.74.72-2.11,1.9c-1.43,1.24-2.25,1.91-2.35,1.91-.08,0-.02-.13,0-.2.3-2.43.5-3.68.54-3.68.42,0,.89.02,1.28.02.18,0,.22-.02.24-.22,0-.02.01-.05.01-.07.11-1.01.3-1.79.3-2.26,0-.2.05-.22-.18-.22-1.81,0-3.22.2-4.17.2-.32,0-.48-.03-.81-.03-.18,0-.22-.02-.25.19-.18,1.08-.42,1.87-.42,2.1,0,.15.6.2,1.63.2.2,0,.18,0,.18.18,0,.26,0,.52-.01.77-.04,2.31-.23,4.13-.26,5.47v.09c0,.22-.04.18-.24.18-.34,0-.54-.07-.88-.07-.22,0-.2-.02-.2.2,0,.86.07,1.65.07,2.26,0,.16-.02.25-.02.41,0,.22,0,.2.2.2.8,0,2.19-.31,4.13-.32.19,0,.21-.02.21-.22,0-.59.17-1.24.17-1.85,0-.15.08-.27-.84-.34-.21-.01-.49-.02-.83-.03-.07,0-.2,0-.2-.13,0-.75.2-1.7.2-1.7.04-.06.74-.33,1.58-.33.63,0,1.19.18,1.59.52.13.12.36.42.6.85.3.53.61,1.26.81,2.08.38,1.54.22,1.52.61,1.52,1.11,0,2.34-.18,3.62-.23.18,0,.2-.04.2-.22,0-.41.07-1.16.07-2.15,0-.04,0-.07-.01-.09Z"/>
  <path class="cls-1" d="M21.83,7.45c-.1-.66-.29-1.21-.62-1.65-.6-.79-1.81-1.37-3.11-1.37-2.29,0-3.65.69-4.28,2.2-.3.71-.44,1.6-.44,2.68,0,2.5,1.68,3.83,4.72,3.83,1.3,0,2.33-.53,2.98-1.53.47-.7.82-1.96.82-3.07,0-.39-.02-.76-.07-1.09ZM18.64,10.43c-.56.09-.88.14-1.45.14-1.24,0-1.79-.29-2.26-1.36-.16-.38-.25-.6-.25-1.01,0-.56.22-.9.74-1.07.27-.09.62-.13,1.07-.13.72,0,1.57.09,2.37.25.06,0,.12.03.18.05.96.23,1.45.7,1.45,1.47,0,1.17-.46,1.44-1.85,1.66Z"/>
  <path class="cls-1" d="M37.78,1.2c-.8.02-1.21.06-2.01.06h-.6c-.14,0-.18-.02-.25.14-.18.39-.36.77-.53,1.13-1.36,2.84-2.6,4.97-3.29,6.55-.02.05-.02.13-.09.13-.09,0-.85-2.21-1.57-4.22-.91-2.53-1.41-3.86-1.5-3.93-.06-.06-.15-.04-.22-.04-.22,0-.43,0-.64,0-1.7.04-3.09.24-4.15.24-.15,0-.19,0-.2.16-.17.97-.29,1.67-.29,2,0,.05.11.05.16.05.67.04,1.22.12,1.62.15.08.01.16.01.23.01.18,0,.19.02.19.2,0,.49.01.88.01,1.26,0,.5,0,.98-.04,1.61-.07.99-.2,1.53-.2,2.51,0,.33.04.49.04.81,0,.41-.08.11-1.16.11-.04,0-.08,0-.1.01-.06-.01-.08.02-.08.15,0,.43,0,.8,0,1.1.02.7.04,1.05.04,1.05,0,.18-.02.29-.02.47s-.02.16.2.16c.74,0,1.16-.05,1.9-.07,2.24-.05,2.43.13,2.43-.29,0-.88.14-1.58.14-2.04,0-.06.02-.11-.02-.15-.02,0-.65-.14-1.66-.14-.06,0-.13.02-.13-.04,0-.87.41-2.54.53-4.98.02-.35.03-.72.03-1.1,0-.05-.03-.13.02-.13.07,0,.33.47.67,1.2.31.68.69,1.57,1.06,2.53.04.1.08.2.12.31.35.93.66,1.62.98,2.33.28.61.56,1.23.88,2.03.02.06.02.13.07.13.47,0,.89-.09.96-.14.12-.09.66-1.19,1.69-3.19.06-.11.11-.22.17-.33.81-1.56,1.33-2.46,2.1-3.91.07-.12.13-.24.2-.36.02-.06.04-.11.09-.11.02,0,.15.82.15,2.33,0,.68-.06,1.33-.07,1.93-.01.12-.01.24-.01.35,0,.43.08.67.08,1.1,0,.03,0,.06-.01.08,0,.13-.02.13-.23.13-.49,0-.74-.07-1.23-.07-.29,0-.2-.02-.2,2.49,0,.18,0,.2.2.2.96,0,1.48-.11,2.44-.14,2.05-.07,2.44.11,2.46-.29.01-.15.02-.28.03-.41.11-1.35.38-1.69.01-1.69-1.18.02-1.81.02-1.81-.11,0-.48.16-1.48.28-2.95.07-.83.12-1.81.12-2.93,0-.29-.02-.47-.02-.76,0-.21.02-.14.2-.14.63,0,.98.05,1.61.05.16,0,.22.04.23-.16.08-.91.22-1.74.22-2.46,0-.05-.8-.01-2.24.02Z"/>
  <path class="cls-1" d="M48.35,5.8c-.13-.17-.28-.33-.47-.48-.65-.53-1.61-.89-2.64-.89-2.54,0-3.93.85-4.46,2.73-.18.61-.26,1.32-.26,2.15,0,1.34.48,2.34,1.39,2.97.79.57,1.91.86,3.33.86,1.31,0,2.34-.53,2.99-1.53.35-.51.62-1.33.74-2.17.05-.3.07-.61.07-.9,0-1.17-.2-2.08-.69-2.74ZM45.79,10.43c-.56.09-.89.14-1.45.14h-.18c-1.12-.03-1.63-.34-2.08-1.36-.17-.38-.26-.6-.26-1.01,0-.3.06-.53.21-.71.25-.34.76-.49,1.6-.49.73,0,1.58.09,2.37.25,1.09.23,1.63.7,1.63,1.52,0,1.17-.45,1.44-1.84,1.66Z"/>
  <path class="cls-1" d="M58.73,6.11c-.24-.56-.64-.94-1.21-1.16-.37-.14-.81-.21-1.32-.21-1.43,0-2.84.62-3.74,1.68-.02.02-.03.04-.05.06-.01.03-.03.05-.06.05-.02,0-.05-.1-.07-.24-.02-.14-.03-.31-.02-.49,0,0,.05-.99.14-2.77.06-1.09.11-1.9.11-2.35,0-.03.02-.11-.02-.11-.5,0-1.89.61-3.05.74-.23.03-.37.61-.41,1.63-.01.18-.01.38-.01.59,0,.02.58.13,1.48.13.17,0,.2.02.22.18.07,1.06.2,2.37.2,3.93,0,1.31-.08,2.39-.16,3.24-.08.85-.16,1.47-.16,1.87,0,0,.74.47,1.17.47.04,0,.09-.39.2-.81.07-.28.11-.62.16-.62.04,0,.08.03.11.05,1,.7,1.92,1.22,3.13,1.22,2.01,0,3.67-2.3,3.67-5.26,0-.73-.1-1.34-.31-1.82ZM54.95,10.44c-.61,0-1.42-.25-1.77-.55-.43-.36-.74-1.15-.74-1.69,0-.09,1.75-1.04,3.49-1.04,1.23,0,1.59.48,1.59,2.12,0,.64-1.03,1.16-2.57,1.16Z"/>
  <path class="cls-1" d="M64.81,10.77c-1.48,0-1.34-.04-1.34-.25,0-1.67.21-3.07.33-4.2.05-.49.09-.92.09-1.31,0-.13.03-.18-.13-.16-1.52.08-2.77.3-3.71.3-.12,0-.16.02-.18.16-.14.93-.27,1.54-.27,1.83,0,.06.07.04.13.04,1.08.03,1.67.03,1.98.43h0c.17.25.24.62.24,1.22,0,.34-.02.81-.02,1.25v.4c0,.2-.07.14-.23.14h-.14c-.34-.01-.56-.05-.95-.05-.12,0-.16,0-.16.12-.04.9-.2,1.71-.2,2.37,0,.06.09.02.15.02.36,0,.71-.01,1.03-.02,1.13-.03,2.01-.1,2.62-.1.2,0,.33.01.53.01.14,0,.16,0,.18-.16.03-.72.2-1.38.2-1.9,0-.13,0-.14-.15-.14ZM62.28.65c-.63,0-1.2.37-1.48.9-.13.23-.2.49-.2.76,0,.94.74,1.62,1.75,1.62.61,0,1.13-.33,1.4-.84.14-.25.21-.53.21-.85,0-.88-.76-1.59-1.68-1.59Z"/>
  <path class="cls-1" d="M70.09,10.62c-1.21,0-1.27.04-1.27-.14,0-3.41.76-6.69.76-9.87,0-.04.04-.11,0-.11h-.08c-1.16.02-2.37.41-3.55.43-.22,0-.22.29-.26.94-.01.41-.12.84-.12,1.09,0,.04.07.04.11.04.83.03,1.46.21,1.52.23.27.14.38.41.42.82.03.23.03.52.03.85,0,1.74-.31,3.37-.31,4.84,0,.25.02.4.02.65,0,.14,0,.18-.18.18h-.14c-.26,0-.44-.02-.73-.02q-.13,0-.13.14c0,.79-.09,1.55-.09,2.18,0,.12.02.12.15.12.94,0,2.06-.11,3.33-.11h.39q.13,0,.13-.12c0-.45.06-.91.09-1.33.03-.22.04-.43.04-.63,0-.14.03-.18-.13-.18Z"/>
  <path class="cls-1" d="M76.08,10.77c-1.49,0-1.34-.04-1.34-.25,0-.81.05-1.55.11-2.23.12-1.33.3-2.43.3-3.28,0-.13.04-.18-.12-.16-1.52.08-2.77.3-3.71.3-.13,0-.16.02-.18.16-.15.93-.27,1.54-.27,1.83,0,.06.07.04.12.04,1.72.05,2.23.02,2.23,1.65v.02c0,.34-.02.8-.02,1.23v.4c0,.2-.07.14-.23.14-.44,0-.66-.05-1.09-.05-.13,0-.16,0-.16.12-.02.43-.07.84-.11,1.22-.05.42-.09.8-.09,1.15,0,.06.09.02.14.02.3,0,.58,0,.85-.01,1.22-.03,2.16-.11,2.81-.11.2,0,.32.01.52.01.15,0,.16,0,.18-.16.04-.72.2-1.38.2-1.9,0-.13,0-.14-.14-.14ZM73.54.65c-.9,0-1.68.77-1.68,1.66,0,.54.24.99.64,1.27.29.22.68.35,1.12.35.62,0,1.15-.34,1.41-.87.13-.24.2-.52.2-.82,0-.88-.76-1.59-1.69-1.59Z"/>
  <path class="cls-1" d="M82.7,11.66c0-1.09-.02-1.72-.08-1.72-.14,0-.85.38-1.81.38-.27,0-.49-.01-.66-.06-.47-.12-.64-.49-.64-1.56,0-1.36-.09-1.43.22-1.43.17,0,.34,0,.52,0,.38.01.76.02,1.11.02,1.26,0,.68.06,1.1-2.29.07-.38-.62.06-2.48.07h-.05c-.18,0-.16.02-.16-.16,0-.09,0-.18.01-.27.04-.8.26-1.54.26-2.19,0-.2-.09-.11-1.27.09-.21.03-.19.34-.26.99-.01.09-.02.18-.03.28-.05.47-.13.72-.13,1.19,0,.12-.03.12-.16.12h-1.21c-.22,0-.22.2-.22,1.81,0,.22-.03.2,1.11.26.07,0,.16-.04.16.03,0,.4-.18,1.47-.18,3.21,0,.33.02.64.06.91.18,1.21.75,1.82,1.64,1.82,1.1,0,1.93-.56,3.04-1.25.14-.09.11-.15.11-.26Z"/>
  <path class="cls-1" d="M91.68,10.1c-.48,0-2.28.67-4.21.67-1.5,0-2.42-1.31-2.42-1.73,0-.02.2-.03.59-.04.52-.01,1.41-.01,2.63-.01h.01c1.25,0,2.26.07,2.93.07.1,0,.17.01.21-.15.04-.12.05-.34.05-.73,0-2.49-1.38-3.87-3.46-3.87-1.49,0-2.9.77-3.76,2.04-.54.79-.87,1.78-.87,2.89,0,.97.44,2.17.94,2.76.58.7,1.68,1.19,2.64,1.19,1.97,0,4.36-1.22,4.47-1.38,0,0,.25-.92.25-1.56,0-.06.06-.15,0-.15ZM86.78,6.37c2.19,0,2.97,1.26,2.97,1.44,0,.07-1.52.16-4.58.16-.07,0-.2.05-.2-.02,0-.5.89-1.58,1.81-1.58Z"/>
  <path class="cls-1" d="M98.07,11.66c0-1.09-.02-1.72-.08-1.72-.14,0-.85.38-1.8.38-.77,0-1.13-.09-1.25-.79-.04-.21-.06-.49-.06-.83,0-1.36-.09-1.43.22-1.43.29,0,.6,0,.9,0,.25.01.5.02.73.02,1.26,0,.69.06,1.1-2.29.07-.38-.63.07-2.53.07h-.08c-.08,0-.08-.01-.08-.09v-.07c0-.9.27-1.74.27-2.46,0-.2-.09-.11-1.27.09-.23.03-.18.43-.29,1.27-.02.24-.06.42-.08.6s-.04.36-.04.59c0,.12-.04.12-.17.12h-1.21c-.22,0-.22.2-.22,1.81,0,.22-.03.2,1.11.26.07,0,.16-.04.16.03,0,.3-.1.97-.15,2.01-.02.36-.03.76-.03,1.2,0,1.82.61,2.73,1.7,2.73s1.94-.56,3.04-1.25c.14-.09.11-.15.11-.26Z"/>
  <g>
    <path d="M21.9,8.54c0,1.11-.35,2.37-.82,3.07-.65,1-1.68,1.53-2.98,1.53-3.04,0-4.72-1.33-4.72-3.83,0-1.08.14-1.97.44-2.68.18-.16.36-.26.55-.27.38-.02.73.29,1.05.77-.52.17-.74.51-.74,1.07,0,.41.09.63.25,1.01.47,1.07,1.02,1.36,2.26,1.36.57,0,.89-.05,1.45-.14,1.39-.22,1.85-.49,1.85-1.66,0-.77-.49-1.24-1.45-1.47.17-.47.4-.83.75-.92.52-.13,1.33.31,2.04,1.07.05.33.07.7.07,1.09Z"/>
    <path d="M23.12,11.4c-.01-.3-.01-.67-.01-1.1,0-.13.02-.16.08-.15.05.42.04.84-.07,1.25Z"/>
    <path d="M88.01,4.31c-1.49,0-2.9.77-3.76,2.04.06.98.49,2.01,1.2,2.54.06.05.12.09.19.11.7.41,1.44.17,2.63-.01h.01c.75-.12,1.69-.21,2.91-.1.08.01.15.01.23.02.04-.12.05-.34.05-.73,0-2.49-1.38-3.87-3.46-3.87ZM85.17,7.97c-.07,0-.2.05-.2-.02,0-.5.89-1.58,1.81-1.58,2.19,0,2.97,1.26,2.97,1.44,0,.07-1.52.16-4.58.16Z"/>
    <path d="M94.88,8.7c0,.34.02.62.06.83-.42.1-.91-.08-1.69-.29.05-1.04.15-1.71.15-2.01,0-.07-.09-.03-.16-.03-1.14-.06-1.11-.04-1.11-.26,0-1.61,0-1.81.22-1.81h1.21c.13,0,.17,0,.17-.12,0-.23.02-.41.04-.59.29,0,.65.04.99.25.14.09.27.19.38.32.04.03.07.06.08.09h.01c.47.55.74,1.4.77,2.2-.3,0-.61,0-.9,0-.31,0-.22.07-.22,1.43Z"/>
    <path d="M64.96,10.91c0,.52-.17,1.18-.2,1.9-.02.16-.04.16-.18.16-.2,0-.33-.01-.53-.01-.61,0-1.49.07-2.62.1.04-.62.09-1.41.13-2.44,0-.07.01-.15.01-.23.05-1.51.04-2.28.14-2.77h0c.07-.28.18-.47.36-.65.42-.41,1.05-.62,1.73-.65-.12,1.13-.33,2.53-.33,4.2,0,.21-.14.25,1.34.25.15,0,.15.01.15.14Z"/>
    <path d="M70.18,11.43c-.03.42-.09.88-.09,1.33q0,.12-.13.12h-.39c-1.27,0-2.39.11-3.33.11-.13,0-.15,0-.15-.12,0-.63.09-1.39.09-2.18q0-.14.13-.14c.29,0,.47.01.73.02.59.76,1.91.68,3.14.86Z"/>
    <path d="M72.51,13.07c-.27.01-.55.01-.85.01-.05,0-.14.04-.14-.02,0-.35.04-.73.09-1.15.22.13.42.31.58.53.14.19.25.4.32.63Z"/>
    <path d="M73.62,3.93c-.44,0-.83-.13-1.12-.35.81-.42,1.75-.49,2.53-.52-.26.53-.79.87-1.41.87Z"/>
    <path d="M75.15,5.01c0,.85-.18,1.95-.3,3.28-.53.2-1.1.42-1.63.56v-.02c0-1.63-.51-1.6-2.23-1.65-.05,0-.12.02-.12-.04,0-.29.12-.9.27-1.83.02-.14.05-.16.18-.16.94,0,2.19-.22,3.71-.3.16-.02.12.03.12.16Z"/>
    <path d="M80.15,10.26c-.09.27-.23.48-.44.65-.46.39-1.19.54-1.8.44-.04-.27-.06-.58-.06-.91,0-1.74.18-2.81.18-3.21,0-.07-.09-.03-.16-.03-1.14-.06-1.11-.04-1.11-.26,0-1.61,0-1.81.22-1.81h1.21c.13,0,.16,0,.16-.12,0-.47.08-.72.13-1.19,0-.1.02-.19.03-.28.46.22.88.54,1.2.99.03.04.05.08.07.12.09.13.15.27.2.43.17.51.22,1.18.27,2.2-.18,0-.35,0-.52,0-.31,0-.22.07-.22,1.43,0,1.07.17,1.44.64,1.56Z"/>
    <path d="M63.96,2.24c0,.32-.07.6-.21.85-1.11-.4-2.11-.79-2.95-1.54.28-.53.85-.9,1.48-.9.92,0,1.68.71,1.68,1.59Z"/>
    <path d="M68.47,3.73c-.25.18-.53.29-.85.32-.04-.41-.15-.68-.42-.82-.06-.02-.69-.2-1.52-.23-.04,0-.11,0-.11-.04,0-.25.11-.68.12-1.09.04-.65.04-.94.26-.94,1.18-.02,2.39-.41,3.55-.43.17,1.27-.18,2.63-1.03,3.23Z"/>
    <path d="M48.35,5.8c-.13-.17-.28-.33-.47-.48-.08.65.03,1.22.13,1.74.11.5.3,1.45.96,2.38.05-.3.07-.61.07-.9,0-1.17-.2-2.08-.69-2.74ZM58.24,4.94c-.21-.12-.45-.1-.72.01-1.18.45-2.85,2.6-4.34,2.11-.32-.1-.57-.31-.77-.58-.05-.06-.09-.12-.13-.19-.84-1.34-.83-3.82-1.97-3.99-.42-.06-.87.22-1.28.64-.01.18-.01.38-.01.59,0,.02.58.13,1.48.13.17,0,.2.02.22.18.07,1.06.2,2.37.2,3.93,0,1.31-.08,2.39-.16,3.24,1.15.61,2.23.65,2.42.66,2.15.04,4.21-1.24,5.06-3.11.33-.74.53-1.69.49-2.45-.02-.55-.17-.99-.49-1.17ZM54.95,10.44c-.61,0-1.42-.25-1.77-.55-.43-.36-.74-1.15-.74-1.69,0-.09,1.75-1.04,3.49-1.04,1.23,0,1.59.48,1.59,2.12,0,.64-1.03,1.16-2.57,1.16Z"/>
    <path d="M9.46,8.43c-.62.42-1.29.78-1.88,1.03-.24-.43-.47-.73-.6-.85-.4-.34-.96-.52-1.59-.52-.84,0-1.54.27-1.58.33,0,0-.2.95-.2,1.7,0,.13.13.13.2.13.34,0,.62.02.83.03-.92.1-1.89.01-2.6-.54.03-1.34.22-3.16.26-5.47.94-.78,2.32-1.11,3.73-1.13,0,.02-.01.05-.01.07-.02.2-.06.22-.24.22-.39,0-.86-.02-1.28-.02-.04,0-.24,1.25-.54,3.68-.02.07-.08.2,0,.2.1,0,.92-.67,2.35-1.91,1.37-1.18,2.11-1.85,2.11-1.9s-.07-.04-.12-.04c-.31-.01-.49,0-.8-.01-.18,0-.2-.04-.2-.2v-.02c1.23.13,2.38.47,3.21.94-.57.43-1.34,1.01-1.98,1.5-1.19.9-1.91,1.33-1.91,1.37,0,.09.14-.02.23-.02,1.44,0,2.15.45,2.61,1.43Z"/>
    <path d="M39.18,12.33c-1.45-.28-2.86-1.07-3.47-1.91-.23-.31-.35-.64-.32-.94.02-.2.11-.4.26-.59.37-.51,1.11-.98,2.01-1.31-.12,1.47-.28,2.47-.28,2.95,0,.13.63.13,1.81.11.37,0,.1.34-.01,1.69Z"/>
    <path d="M44.16,10.57c-.01.06-.03.11-.04.16-.25.85-1.19,1.33-2.21,1.55-.91-.63-1.39-1.63-1.39-2.97,0-.83.08-1.54.26-2.15.44.05.86.16,1.25.33-.15.18-.21.41-.21.71,0,.41.09.63.26,1.01.45,1.02.96,1.33,2.08,1.36Z"/>
    <path d="M35.28,5.1c.04.57-.04,1.15-.22,1.69-.37,1.09-1.14,1.94-2.05,2.55-1.18.8-2.59,1.2-3.6,1.17-.32-.71-.63-1.4-.98-2.33-.04-.11-.08-.21-.12-.31.23-.84.42-1.68-.09-2.19-.26-.26-.59-.34-.97-.34-.23-.02-.48,0-.72.03-.7.05-1.41.14-1.88-.27-.04-.04-.08-.07-.11-.11-.31-.35-.39-.86-.32-1.36.03-.39.16-.77.32-1.06.53-.99,1.61-1.34,2.54-1.54.21,0,.42,0,.64,0,.07,0,.16-.02.22.04.09.07.59,1.4,1.5,3.93.72,2.01,1.48,4.22,1.57,4.22.07,0,.07-.08.09-.13.69-1.58,1.93-3.71,3.29-6.55.01.01.02.03.03.04.53.72.82,1.62.86,2.53Z"/>
  </g>
</svg>